<!--?xml version="1.0" standalone="no"?-->
              <svg id="sw-js-blob-svg" viewBox="0 0 100 100" xmlns="http://www.w3.org/2000/svg" version="1.1">
                    <defs> 
                        <linearGradient id="sw-gradient" x1="0" x2="1" y1="1" y2="0">
                            <stop id="stop1" stop-color="rgba(219.781, 163.3, 136.568, 1)" offset="0%"></stop>
                            <stop id="stop2" stop-color="rgba(210.674, 175.196, 116.636, 1)" offset="100%"></stop>
                        </linearGradient>
                    </defs>
                <path fill="url(#sw-gradient)" d="M23.2,-26.2C30.1,-21.9,35.6,-14.6,36.6,-6.8C37.6,1,34,9.3,29.6,17.1C25.1,24.9,19.7,32.2,12,36.5C4.3,40.7,-5.7,42.1,-13.2,38.4C-20.7,34.8,-25.7,26.2,-29.2,17.9C-32.7,9.6,-34.8,1.5,-33.9,-6.3C-32.9,-14.1,-28.8,-21.8,-22.6,-26.2C-16.4,-30.6,-8.2,-31.8,0,-31.8C8.2,-31.8,16.4,-30.5,23.2,-26.2Z" width="100%" height="100%" transform="translate(50 50)" stroke-width="0" style="transition: all 0.3s ease 0s;" stroke="url(#sw-gradient)"></path>
              </svg>